<svg width="1373" height="809" viewBox="0 0 1373 809" fill="none" xmlns="http://www.w3.org/2000/svg">
<ellipse cx="2.82402" cy="3.00067" rx="2.82402" ry="3" fill="#222222"/>
<ellipse cx="174.148" cy="3.00067" rx="2.82402" ry="3" fill="#222222"/>
<ellipse cx="344.531" cy="3.00067" rx="2.82402" ry="3" fill="#222222"/>
<ellipse cx="515.855" cy="3.00067" rx="2.82402" ry="3" fill="#222222"/>
<ellipse cx="686.238" cy="3.00067" rx="2.82402" ry="3" fill="#222222"/>
<ellipse cx="857.562" cy="3.00067" rx="2.82402" ry="3" fill="#222222"/>
<ellipse cx="1027.94" cy="3.00067" rx="2.82402" ry="3" fill="#222222"/>
<ellipse cx="1199.27" cy="3.00067" rx="2.82402" ry="3" fill="#222222"/>
<ellipse cx="1369.65" cy="3.00067" rx="2.82402" ry="3" fill="#222222"/>
<ellipse cx="2.83266" cy="115.001" rx="2.83266" ry="3" fill="#222222"/>
<ellipse cx="173.737" cy="115.001" rx="2.83266" ry="3" fill="#222222"/>
<ellipse cx="344.641" cy="115.001" rx="2.83266" ry="3" fill="#222222"/>
<ellipse cx="515.544" cy="115.001" rx="2.83266" ry="3" fill="#222222"/>
<ellipse cx="686.448" cy="115.001" rx="2.83266" ry="3" fill="#222222"/>
<ellipse cx="857.352" cy="115.001" rx="2.83266" ry="3" fill="#222222"/>
<ellipse cx="1028.26" cy="115.001" rx="2.83266" ry="3" fill="#222222"/>
<ellipse cx="1199.16" cy="115.001" rx="2.83266" ry="3" fill="#222222"/>
<ellipse cx="1370.06" cy="115.001" rx="2.83266" ry="3" fill="#222222"/>
<ellipse cx="2.83266" cy="227.001" rx="2.83266" ry="3" fill="#222222"/>
<ellipse cx="173.736" cy="227.001" rx="2.83266" ry="3" fill="#222222"/>
<ellipse cx="344.64" cy="227.001" rx="2.83266" ry="3" fill="#222222"/>
<ellipse cx="515.544" cy="227.001" rx="2.83266" ry="3" fill="#222222"/>
<ellipse cx="686.448" cy="227.001" rx="2.83266" ry="3" fill="#222222"/>
<ellipse cx="857.352" cy="227.001" rx="2.83266" ry="3" fill="#222222"/>
<ellipse cx="1028.26" cy="227.001" rx="2.83266" ry="3" fill="#222222"/>
<ellipse cx="1199.16" cy="227.001" rx="2.83266" ry="3" fill="#222222"/>
<ellipse cx="1370.06" cy="227.001" rx="2.83266" ry="3" fill="#222222"/>
<ellipse cx="2.83266" cy="339.001" rx="2.83266" ry="3" fill="#222222"/>
<ellipse cx="173.736" cy="339.001" rx="2.83266" ry="3" fill="#222222"/>
<ellipse cx="344.64" cy="339.001" rx="2.83266" ry="3" fill="#222222"/>
<ellipse cx="515.544" cy="339.001" rx="2.83266" ry="3" fill="#222222"/>
<ellipse cx="686.448" cy="339.001" rx="2.83266" ry="3" fill="#222222"/>
<ellipse cx="857.352" cy="339.001" rx="2.83266" ry="3" fill="#222222"/>
<ellipse cx="1028.26" cy="339.001" rx="2.83266" ry="3" fill="#222222"/>
<ellipse cx="1199.16" cy="339.001" rx="2.83266" ry="3" fill="#222222"/>
<ellipse cx="1370.06" cy="339.001" rx="2.83266" ry="3" fill="#222222"/>
<ellipse cx="2.83266" cy="451.001" rx="2.83266" ry="3" fill="#222222"/>
<ellipse cx="173.736" cy="451.001" rx="2.83266" ry="3" fill="#222222"/>
<ellipse cx="344.64" cy="451.001" rx="2.83266" ry="3" fill="#222222"/>
<ellipse cx="515.544" cy="451.001" rx="2.83266" ry="3" fill="#222222"/>
<ellipse cx="686.448" cy="451.001" rx="2.83266" ry="3" fill="#222222"/>
<ellipse cx="857.352" cy="451.001" rx="2.83266" ry="3" fill="#222222"/>
<ellipse cx="1028.26" cy="451.001" rx="2.83266" ry="3" fill="#222222"/>
<ellipse cx="1199.16" cy="451.001" rx="2.83266" ry="3" fill="#222222"/>
<ellipse cx="1370.06" cy="451.001" rx="2.83266" ry="3" fill="#222222"/>
<ellipse cx="2.83266" cy="563.001" rx="2.83266" ry="3" fill="#222222"/>
<ellipse cx="173.736" cy="563.001" rx="2.83266" ry="3" fill="#222222"/>
<ellipse cx="344.64" cy="563.001" rx="2.83266" ry="3" fill="#222222"/>
<ellipse cx="515.544" cy="563.001" rx="2.83266" ry="3" fill="#222222"/>
<ellipse cx="686.448" cy="563.001" rx="2.83266" ry="3" fill="#222222"/>
<ellipse cx="857.352" cy="563.001" rx="2.83266" ry="3" fill="#222222"/>
<ellipse cx="1028.26" cy="563.001" rx="2.83266" ry="3" fill="#222222"/>
<ellipse cx="1199.16" cy="563.001" rx="2.83266" ry="3" fill="#222222"/>
<ellipse cx="1370.06" cy="563.001" rx="2.83266" ry="3" fill="#222222"/>
<ellipse cx="3.77209" cy="675.001" rx="2.83093" ry="3" fill="#222222"/>
<ellipse cx="3.77209" cy="806.001" rx="2.83093" ry="3" fill="#222222"/>
<ellipse cx="174.572" cy="675.001" rx="2.83093" ry="3" fill="#222222"/>
<ellipse cx="174.572" cy="806.001" rx="2.83093" ry="3" fill="#222222"/>
<ellipse cx="345.371" cy="675.001" rx="2.83093" ry="3" fill="#222222"/>
<ellipse cx="345.371" cy="806.001" rx="2.83093" ry="3" fill="#222222"/>
<ellipse cx="516.171" cy="675.001" rx="2.83093" ry="3" fill="#222222"/>
<ellipse cx="516.171" cy="806.001" rx="2.83093" ry="3" fill="#222222"/>
<ellipse cx="686.971" cy="675.001" rx="2.83093" ry="3" fill="#222222"/>
<ellipse cx="686.971" cy="806.001" rx="2.83093" ry="3" fill="#222222"/>
<ellipse cx="857.77" cy="675.001" rx="2.83093" ry="3" fill="#222222"/>
<ellipse cx="857.77" cy="806.001" rx="2.83093" ry="3" fill="#222222"/>
<ellipse cx="1028.57" cy="675.001" rx="2.83093" ry="3" fill="#222222"/>
<ellipse cx="1028.57" cy="806.001" rx="2.83093" ry="3" fill="#222222"/>
<ellipse cx="1199.37" cy="675.001" rx="2.83093" ry="3" fill="#222222"/>
<ellipse cx="1199.37" cy="806.001" rx="2.83093" ry="3" fill="#222222"/>
<ellipse cx="1370.17" cy="675.001" rx="2.83093" ry="3" fill="#222222"/>
<ellipse cx="1370.17" cy="806.001" rx="2.83093" ry="3" fill="#222222"/>
</svg>
